<mxfile host="app.diagrams.net" agent="Mozilla/5.0 (Windows NT 10.0; Win64; x64) AppleWebKit/537.36 (KHTML, like Gecko) Chrome/136.0.0.0 Safari/537.36" version="27.1.1">
  <diagram id="vyoIxmZsPqyjIaVw20bM" name="ШАБЛОН IDEFO">
    <mxGraphModel dx="3253" dy="1140" grid="1" gridSize="10" guides="1" tooltips="1" connect="1" arrows="1" fold="1" page="1" pageScale="1" pageWidth="1169" pageHeight="1654" math="0" shadow="0">
      <root>
        <mxCell id="0" />
        <mxCell id="1" parent="0" />
        <mxCell id="brCvWR_oo-GiSlmCsP64-2" value="" style="rounded=0;whiteSpace=wrap;html=1;fontFamily=Verdana;fontSize=16;" parent="1" vertex="1">
          <mxGeometry x="-80" y="10" width="1760" height="1190" as="geometry" />
        </mxCell>
        <mxCell id="lTlHiMkp-W4N98VbTwWS-1" value="" style="rounded=0;whiteSpace=wrap;html=1;fontFamily=Verdana;fontSize=16;" parent="1" vertex="1">
          <mxGeometry x="80" y="10" width="1240" height="130" as="geometry" />
        </mxCell>
        <mxCell id="EZrlyoz4cn3X82sRoT2a-1" value="" style="rounded=0;whiteSpace=wrap;html=1;fontFamily=Verdana;fontSize=16;" parent="1" vertex="1">
          <mxGeometry x="80" y="1110" width="1240" height="100" as="geometry" />
        </mxCell>
        <mxCell id="ND0CMPvddl-I8bLgChdX-1" value="" style="rounded=0;whiteSpace=wrap;html=1;fontFamily=Verdana;fontSize=16;" parent="1" vertex="1">
          <mxGeometry x="-80" y="10" width="270" height="170" as="geometry" />
        </mxCell>
        <mxCell id="rLtWRwqCM1n6zOMHBAA3-1" value="" style="rounded=0;whiteSpace=wrap;html=1;fontFamily=Verdana;fontSize=16;" parent="1" vertex="1">
          <mxGeometry x="180" y="10" width="610" height="170" as="geometry" />
        </mxCell>
        <mxCell id="Nfi6m4s9ve7EBqgsBGAA-1" value="" style="rounded=0;whiteSpace=wrap;html=1;fontFamily=Verdana;fontSize=16;" parent="1" vertex="1">
          <mxGeometry x="1310" y="10" width="370" height="170" as="geometry" />
        </mxCell>
        <mxCell id="Nfi6m4s9ve7EBqgsBGAA-2" value="" style="shape=table;startSize=0;container=1;collapsible=0;childLayout=tableLayout;fontSize=16;fontFamily=Verdana;" parent="1" vertex="1">
          <mxGeometry x="790" y="10" width="590" height="170" as="geometry" />
        </mxCell>
        <mxCell id="Nfi6m4s9ve7EBqgsBGAA-3" value="" style="shape=tableRow;horizontal=0;startSize=0;swimlaneHead=0;swimlaneBody=0;strokeColor=inherit;top=0;left=0;bottom=0;right=0;collapsible=0;dropTarget=0;fillColor=none;points=[[0,0.5],[1,0.5]];portConstraint=eastwest;fontSize=16;fontFamily=Verdana;" parent="Nfi6m4s9ve7EBqgsBGAA-2" vertex="1">
          <mxGeometry width="590" height="45" as="geometry" />
        </mxCell>
        <mxCell id="Hvg1TtT1g8CZtlM4cDpY-1" style="shape=partialRectangle;html=1;whiteSpace=wrap;connectable=0;strokeColor=inherit;overflow=hidden;fillColor=#000000;top=0;left=0;bottom=0;right=0;pointerEvents=1;fontSize=16;fontFamily=Verdana;" parent="Nfi6m4s9ve7EBqgsBGAA-3" vertex="1">
          <mxGeometry width="68" height="45" as="geometry">
            <mxRectangle width="68" height="45" as="alternateBounds" />
          </mxGeometry>
        </mxCell>
        <mxCell id="Nfi6m4s9ve7EBqgsBGAA-4" value="WORKING" style="shape=partialRectangle;html=1;whiteSpace=wrap;connectable=0;strokeColor=inherit;overflow=hidden;fillColor=none;top=0;left=0;bottom=0;right=0;pointerEvents=1;fontSize=16;fontFamily=Verdana;align=left;verticalAlign=middle;fontColor=default;" parent="Nfi6m4s9ve7EBqgsBGAA-3" vertex="1">
          <mxGeometry x="68" width="232" height="45" as="geometry">
            <mxRectangle width="232" height="45" as="alternateBounds" />
          </mxGeometry>
        </mxCell>
        <mxCell id="Nfi6m4s9ve7EBqgsBGAA-5" value="&lt;div style=&quot;&quot;&gt;&lt;font&gt;&lt;span style=&quot;background-color: transparent; color: light-dark(rgb(0, 0, 0), rgb(255, 255, 255)); font-family: Helvetica;&quot;&gt;READER&amp;nbsp; &amp;nbsp; &amp;nbsp; &amp;nbsp; &amp;nbsp; &amp;nbsp; &amp;nbsp; &amp;nbsp; &amp;nbsp; &amp;nbsp; &amp;nbsp; &amp;nbsp; &amp;nbsp; &amp;nbsp; &amp;nbsp; &amp;nbsp; &amp;nbsp; &amp;nbsp; &amp;nbsp;&amp;nbsp;&lt;/span&gt;&lt;/font&gt;&lt;span style=&quot;font-family: Helvetica; background-color: transparent; color: light-dark(rgb(0, 0, 0), rgb(255, 255, 255));&quot;&gt;DATE&lt;/span&gt;&lt;/div&gt;" style="shape=partialRectangle;html=1;whiteSpace=wrap;connectable=0;strokeColor=inherit;overflow=hidden;fillColor=none;top=0;left=0;bottom=0;right=0;pointerEvents=1;fontSize=16;fontFamily=Verdana;align=left;" parent="Nfi6m4s9ve7EBqgsBGAA-3" vertex="1">
          <mxGeometry x="300" width="290" height="45" as="geometry">
            <mxRectangle width="290" height="45" as="alternateBounds" />
          </mxGeometry>
        </mxCell>
        <mxCell id="SsCR9MMtvQMCHkJH1o0H-1" value="" style="shape=tableRow;horizontal=0;startSize=0;swimlaneHead=0;swimlaneBody=0;strokeColor=inherit;top=0;left=0;bottom=0;right=0;collapsible=0;dropTarget=0;fillColor=none;points=[[0,0.5],[1,0.5]];portConstraint=eastwest;fontSize=16;fontFamily=Verdana;" parent="Nfi6m4s9ve7EBqgsBGAA-2" vertex="1">
          <mxGeometry y="45" width="590" height="40" as="geometry" />
        </mxCell>
        <mxCell id="Hvg1TtT1g8CZtlM4cDpY-2" style="shape=partialRectangle;html=1;whiteSpace=wrap;connectable=0;strokeColor=inherit;overflow=hidden;fillColor=none;top=0;left=0;bottom=0;right=0;pointerEvents=1;fontSize=16;fontFamily=Verdana;" parent="SsCR9MMtvQMCHkJH1o0H-1" vertex="1">
          <mxGeometry width="68" height="40" as="geometry">
            <mxRectangle width="68" height="40" as="alternateBounds" />
          </mxGeometry>
        </mxCell>
        <mxCell id="SsCR9MMtvQMCHkJH1o0H-2" value="DRAFT" style="shape=partialRectangle;html=1;whiteSpace=wrap;connectable=0;strokeColor=inherit;overflow=hidden;fillColor=none;top=0;left=0;bottom=0;right=0;pointerEvents=1;fontSize=16;fontFamily=Verdana;align=left;verticalAlign=middle;fontColor=default;" parent="SsCR9MMtvQMCHkJH1o0H-1" vertex="1">
          <mxGeometry x="68" width="232" height="40" as="geometry">
            <mxRectangle width="232" height="40" as="alternateBounds" />
          </mxGeometry>
        </mxCell>
        <mxCell id="SsCR9MMtvQMCHkJH1o0H-3" value="" style="shape=partialRectangle;html=1;whiteSpace=wrap;connectable=0;strokeColor=inherit;overflow=hidden;fillColor=none;top=0;left=0;bottom=0;right=0;pointerEvents=1;fontSize=16;fontFamily=Verdana;" parent="SsCR9MMtvQMCHkJH1o0H-1" vertex="1">
          <mxGeometry x="300" width="290" height="40" as="geometry">
            <mxRectangle width="290" height="40" as="alternateBounds" />
          </mxGeometry>
        </mxCell>
        <mxCell id="Nfi6m4s9ve7EBqgsBGAA-7" value="" style="shape=tableRow;horizontal=0;startSize=0;swimlaneHead=0;swimlaneBody=0;strokeColor=inherit;top=0;left=0;bottom=0;right=0;collapsible=0;dropTarget=0;fillColor=none;points=[[0,0.5],[1,0.5]];portConstraint=eastwest;fontSize=16;fontFamily=Verdana;" parent="Nfi6m4s9ve7EBqgsBGAA-2" vertex="1">
          <mxGeometry y="85" width="590" height="40" as="geometry" />
        </mxCell>
        <mxCell id="Hvg1TtT1g8CZtlM4cDpY-3" style="shape=partialRectangle;html=1;whiteSpace=wrap;connectable=0;strokeColor=inherit;overflow=hidden;fillColor=none;top=0;left=0;bottom=0;right=0;pointerEvents=1;fontSize=16;fontFamily=Verdana;" parent="Nfi6m4s9ve7EBqgsBGAA-7" vertex="1">
          <mxGeometry width="68" height="40" as="geometry">
            <mxRectangle width="68" height="40" as="alternateBounds" />
          </mxGeometry>
        </mxCell>
        <mxCell id="Nfi6m4s9ve7EBqgsBGAA-8" value="RECOMMENDED" style="shape=partialRectangle;html=1;whiteSpace=wrap;connectable=0;strokeColor=inherit;overflow=hidden;fillColor=none;top=0;left=0;bottom=0;right=0;pointerEvents=1;fontSize=16;fontFamily=Verdana;align=left;verticalAlign=middle;fontColor=default;" parent="Nfi6m4s9ve7EBqgsBGAA-7" vertex="1">
          <mxGeometry x="68" width="232" height="40" as="geometry">
            <mxRectangle width="232" height="40" as="alternateBounds" />
          </mxGeometry>
        </mxCell>
        <mxCell id="Nfi6m4s9ve7EBqgsBGAA-9" value="" style="shape=partialRectangle;html=1;whiteSpace=wrap;connectable=0;strokeColor=inherit;overflow=hidden;fillColor=none;top=0;left=0;bottom=0;right=0;pointerEvents=1;fontSize=16;fontFamily=Verdana;" parent="Nfi6m4s9ve7EBqgsBGAA-7" vertex="1">
          <mxGeometry x="300" width="290" height="40" as="geometry">
            <mxRectangle width="290" height="40" as="alternateBounds" />
          </mxGeometry>
        </mxCell>
        <mxCell id="peBuyBZpc9wg3IfIyJEK-1" style="shape=tableRow;horizontal=0;startSize=0;swimlaneHead=0;swimlaneBody=0;strokeColor=inherit;top=0;left=0;bottom=0;right=0;collapsible=0;dropTarget=0;fillColor=none;points=[[0,0.5],[1,0.5]];portConstraint=eastwest;fontSize=16;fontFamily=Verdana;" parent="Nfi6m4s9ve7EBqgsBGAA-2" vertex="1">
          <mxGeometry y="125" width="590" height="45" as="geometry" />
        </mxCell>
        <mxCell id="peBuyBZpc9wg3IfIyJEK-2" style="shape=partialRectangle;html=1;whiteSpace=wrap;connectable=0;strokeColor=inherit;overflow=hidden;fillColor=none;top=0;left=0;bottom=0;right=0;pointerEvents=1;fontSize=16;fontFamily=Verdana;" parent="peBuyBZpc9wg3IfIyJEK-1" vertex="1">
          <mxGeometry width="68" height="45" as="geometry">
            <mxRectangle width="68" height="45" as="alternateBounds" />
          </mxGeometry>
        </mxCell>
        <mxCell id="peBuyBZpc9wg3IfIyJEK-3" value="&lt;span style=&quot;text-align: left;&quot;&gt;&lt;font face=&quot;Verdana&quot; style=&quot;&quot;&gt;PUBUCATlON&lt;/font&gt;&lt;/span&gt;" style="shape=partialRectangle;html=1;whiteSpace=wrap;connectable=0;strokeColor=inherit;overflow=hidden;fillColor=none;top=0;left=0;bottom=0;right=0;pointerEvents=1;fontSize=16;fontFamily=Verdana;align=left;verticalAlign=middle;fontColor=default;" parent="peBuyBZpc9wg3IfIyJEK-1" vertex="1">
          <mxGeometry x="68" width="232" height="45" as="geometry">
            <mxRectangle width="232" height="45" as="alternateBounds" />
          </mxGeometry>
        </mxCell>
        <mxCell id="peBuyBZpc9wg3IfIyJEK-4" style="shape=partialRectangle;html=1;whiteSpace=wrap;connectable=0;strokeColor=inherit;overflow=hidden;fillColor=none;top=0;left=0;bottom=0;right=0;pointerEvents=1;fontSize=16;fontFamily=Verdana;" parent="peBuyBZpc9wg3IfIyJEK-1" vertex="1">
          <mxGeometry x="300" width="290" height="45" as="geometry">
            <mxRectangle width="290" height="45" as="alternateBounds" />
          </mxGeometry>
        </mxCell>
        <mxCell id="n-HNzB7ImdNlTNORA_8_-1" value="" style="rounded=0;whiteSpace=wrap;html=1;fontFamily=Verdana;fontSize=16;" parent="1" vertex="1">
          <mxGeometry x="-80" y="1110" width="340" height="100" as="geometry" />
        </mxCell>
        <mxCell id="_iGvZAFRhW6gCMIWb4ro-1" value="" style="rounded=0;whiteSpace=wrap;html=1;fontFamily=Verdana;fontSize=16;" parent="1" vertex="1">
          <mxGeometry x="1080" y="1110" width="600" height="100" as="geometry" />
        </mxCell>
        <mxCell id="jh5EY7OM37Xvqf7loAHh-1" value="" style="rounded=0;whiteSpace=wrap;html=1;fontFamily=Verdana;fontSize=16;" parent="1" vertex="1">
          <mxGeometry x="1560" y="1160" width="120" height="50" as="geometry" />
        </mxCell>
        <mxCell id="b9dGwpFp2rlcPazO0jOL-1" value="USET AT: ВКР ГУАП 2025" style="text;html=1;align=center;verticalAlign=middle;whiteSpace=wrap;rounded=0;fontSize=16;fontStyle=0;fontFamily=Verdana;" parent="1" vertex="1">
          <mxGeometry x="-80" y="10" width="220" height="30" as="geometry" />
        </mxCell>
        <mxCell id="2tV_mJkF2rOimTgEerh2-1" value="AUTHOR: Ковалев Даниил Владимирович" style="text;html=1;align=center;verticalAlign=middle;whiteSpace=wrap;rounded=0;fontSize=16;fontStyle=0;fontFamily=Verdana;" parent="1" vertex="1">
          <mxGeometry x="180" y="10" width="350" height="30" as="geometry" />
        </mxCell>
        <mxCell id="Tus1CYwBwzzdWqSTAiTR-1" value="PROJECT: AO" style="text;html=1;align=center;verticalAlign=middle;whiteSpace=wrap;rounded=0;fontSize=16;fontStyle=0;fontFamily=Verdana;" parent="1" vertex="1">
          <mxGeometry x="180" y="30" width="110" height="40" as="geometry" />
        </mxCell>
        <mxCell id="3Hbc0_z7JorQjnINKf0j-1" value="NOTES: " style="text;whiteSpace=wrap;fontSize=16;fontFamily=Verdana;" parent="1" vertex="1">
          <mxGeometry x="180" y="150" width="260" height="40" as="geometry" />
        </mxCell>
        <mxCell id="nATtFuDjmeUd8UKWd1zz-1" value="DATE: 24.11.2024" style="text;whiteSpace=wrap;fontFamily=Verdana;fontSize=16;fontColor=default;fontStyle=0;" parent="1" vertex="1">
          <mxGeometry x="630" y="10" width="160" height="40" as="geometry" />
        </mxCell>
        <mxCell id="kZ8B6VXr_HGnCxGNmRee-1" value="REV:   29.05.2025" style="text;whiteSpace=wrap;fontFamily=Verdana;fontSize=16;fontColor=default;fontStyle=0;" parent="1" vertex="1">
          <mxGeometry x="630" y="40" width="160" height="50" as="geometry" />
        </mxCell>
        <mxCell id="5SzBhUhghOWEOnG7yWwI-1" value="CONTEXT:" style="text;whiteSpace=wrap;fontSize=16;fontFamily=Verdana;" parent="1" vertex="1">
          <mxGeometry x="1380" y="10" width="90" height="30" as="geometry" />
        </mxCell>
        <mxCell id="-I6rywTlXrPdSlYeZovr-1" value="TOP" style="text;whiteSpace=wrap;fontSize=35;fontFamily=Verdana;" parent="1" vertex="1">
          <mxGeometry x="1470" y="70" width="80" height="60" as="geometry" />
        </mxCell>
        <mxCell id="MU7JB2E_d_-bETySsOOY-1" value="NODE:" style="text;whiteSpace=wrap;fontSize=16;fontFamily=Verdana;" parent="1" vertex="1">
          <mxGeometry x="-70" y="1110" width="90" height="30" as="geometry" />
        </mxCell>
        <mxCell id="MU7JB2E_d_-bETySsOOY-2" value="A1" style="text;whiteSpace=wrap;fontSize=35;fontFamily=Verdana;" parent="1" vertex="1">
          <mxGeometry x="60" y="1140" width="80" height="60" as="geometry" />
        </mxCell>
        <mxCell id="AZ9yX-P63RRYPemtyzMM-1" value="TITLE:" style="text;whiteSpace=wrap;fontSize=16;fontFamily=Verdana;" parent="1" vertex="1">
          <mxGeometry x="265" y="1110" width="90" height="30" as="geometry" />
        </mxCell>
        <mxCell id="K7PG7zq7iC10-AfaVJLX-1" value="NUMBER:" style="text;whiteSpace=wrap;fontSize=16;fontFamily=Verdana;" parent="1" vertex="1">
          <mxGeometry x="1090" y="1110" width="90" height="30" as="geometry" />
        </mxCell>
      </root>
    </mxGraphModel>
  </diagram>
</mxfile>
